<svg id="Layer_1" data-name="Layer 1" xmlns="http://www.w3.org/2000/svg" viewBox="0 0 65.25 75"><defs><style>.cls-1{fill:#fff;}.cls-2{fill:#036;}</style></defs><title>logo_ix_bottom</title><path class="cls-1" d="M61.4,56.47C56.75,65.42,33.2,72,33.2,72S8.8,65.15,5,56.47,5,2.54,5,2.54H61.4S66,47.52,61.4,56.47Z"/><path id="_Compound_Path_" data-name="&lt;Compound Path&gt;" class="cls-2" d="M34.15,30.67V44.35H19V29.21H32.7V27.75H17.55V45.81H35.61V30.67Z"/><polygon id="_Path_" data-name="&lt;Path&gt;" class="cls-2" points="45.33 18.03 45.33 26.29 43.88 26.29 43.88 19.49 35.61 19.49 35.61 27.75 42.42 27.75 42.42 29.21 34.15 29.21 34.15 18.03 45.33 18.03"/><polygon id="_Path_2" data-name="&lt;Path&gt;" class="cls-2" points="51.16 27.75 51.16 35.04 46.79 35.04 46.79 33.58 49.7 33.58 49.7 29.21 45.34 29.21 45.34 32.12 43.88 32.12 43.88 27.75 51.16 27.75"/><rect id="_Path_3" data-name="&lt;Path&gt;" class="cls-2" x="39.95" y="33.58" width="5.38" height="5.38"/></svg>