<svg id="Layer_1" data-name="Layer 1" xmlns="http://www.w3.org/2000/svg" viewBox="0 0 655.84 73"><defs><style>.cls-1{fill:#fff;}.cls-2{font-size:68.99px;fill:#0c9;font-family:BungeeInline-Regular, Bungee Inline;}.cls-3{fill:#4f3291;}</style></defs><title>hackindex_01</title><polygon class="cls-1" points="360.33 63.23 63.1 63.23 72.1 34.24 63.1 5.25 360.33 5.25 360.33 34.24 360.33 63.23"/><polygon class="cls-1" points="35.32 63.23 56.6 63.23 65.6 34.24 56.6 5.25 35.32 5.25 44.32 34.24 35.32 63.23"/><polygon class="cls-1" points="17.77 63.23 28.41 63.23 37.41 34.24 28.41 5.25 17.77 5.25 26.77 34.24 17.77 63.23"/><polygon class="cls-1" points="3.55 63.23 8.87 63.23 17.87 34.24 8.87 5.25 3.55 5.25 12.55 34.24 3.55 63.23"/><polygon class="cls-1" points="288.07 5.25 592.3 5.25 583.3 34.24 592.3 63.23 288.07 63.23 288.07 34.24 288.07 5.25"/><polygon class="cls-1" points="620.08 5.25 598.8 5.25 589.8 34.24 598.8 63.23 620.08 63.23 611.08 34.24 620.08 5.25"/><polygon class="cls-1" points="637.63 5.25 626.99 5.25 617.99 34.24 626.99 63.23 637.63 63.23 628.63 34.24 637.63 5.25"/><polygon class="cls-1" points="651.85 5.25 646.52 5.25 637.52 34.24 646.52 63.23 651.85 63.23 642.85 34.24 651.85 5.25"/><text class="cls-2" transform="translate(99.78 59.8)">hack <tspan class="cls-3" x="213.05" y="0">i</tspan><tspan x="254.79" y="0">n</tspan><tspan class="cls-3" x="306.74" y="0">d</tspan><tspan x="358.21" y="0">e</tspan><tspan class="cls-3" x="403.33" y="0">x</tspan></text></svg>