<svg id="Layer_1" data-name="Layer 1" xmlns="http://www.w3.org/2000/svg" viewBox="0 0 21.92 21.21"><defs><style>.cls-1{fill:#fff;}</style></defs><title>instagram</title><path class="cls-1" d="M15.31,20.24H6.42A5.26,5.26,0,0,1,1.16,15V6.1A5.26,5.26,0,0,1,6.42.85h8.89A5.26,5.26,0,0,1,20.56,6.1V15A5.26,5.26,0,0,1,15.31,20.24ZM6.42,2.46A3.64,3.64,0,0,0,2.78,6.1V15a3.64,3.64,0,0,0,3.64,3.64h8.89A3.64,3.64,0,0,0,18.94,15V6.1a3.64,3.64,0,0,0-3.64-3.64Z"/><path class="cls-1" d="M10.86,15.39a4.85,4.85,0,1,1,4.85-4.85A4.85,4.85,0,0,1,10.86,15.39Zm0-8.08a3.23,3.23,0,1,0,3.23,3.23A3.24,3.24,0,0,0,10.86,7.31Z"/><circle class="cls-1" cx="16.01" cy="5.39" r="1.11"/></svg>