<svg id="Layer_1" data-name="Layer 1" xmlns="http://www.w3.org/2000/svg" viewBox="0 0 158 47"><defs><style>.cls-1{fill:#fff;}</style></defs><title>ix_lgoo</title><path class="cls-1" d="M46.25,41.21h-2V31.87h2Z"/><path class="cls-1" d="M52.81,41.21l-3.6-6.6v6.6H47.38V31.87h2.38l3.54,6.62V31.87h1.81v9.35Z"/><path class="cls-1" d="M56.23,41.21V31.87h3.28c3.24,0,4.63,1.74,4.63,4.53s-1.51,4.82-4.85,4.82Zm3-1.6c2.16,0,2.9-1.17,2.9-3.11,0-2.32-.9-3-2.76-3H58.22v6.15Z"/><path class="cls-1" d="M66.92,39.54h4.17v1.68H64.93V31.87h5.93v1.67H66.92v2.19h3.71v1.63H66.92Z"/><path class="cls-1" d="M77.17,36.49l3.07,4.73h-2.3l-2-3.11L74,41.21H71.81l3-4.71L72,31.87h2.22L76.08,35,78,31.87h2.07Z"/><path class="cls-1" d="M85.42,39.54h4.17v1.68H83.43V31.87h5.93v1.67H85.42v2.19h3.71v1.63H85.42Z"/><path class="cls-1" d="M95.67,36.49l3.07,4.73h-2.3l-2-3.11-1.95,3.11H90.31l3-4.71-2.88-4.63h2.22L94.58,35l1.94-3.16h2.07Z"/><path class="cls-1" d="M98.55,36.64c0-3,1.58-4.94,4.51-4.94,2.09,0,3.58,1,3.68,3.36l-1.82.16c-.12-1.33-.68-1.87-1.88-1.87-1.52,0-2.43,1-2.43,3.2s.81,3.19,2.28,3.19a1.84,1.84,0,0,0,2-1.68l1.79.31c-.3,2.23-2.17,3-3.85,3C99.76,41.37,98.55,39.54,98.55,36.64Z"/><path class="cls-1" d="M115.23,41.21h-2V37.38h-3.58v3.83h-2V31.87h2v3.8h3.58v-3.8h2Z"/><path class="cls-1" d="M121.76,31.87l3.3,9.35h-2.18l-.77-2.27H119l-.72,2.27h-2.05l3.06-9.35Zm-1.23,1.87h-.05l-1.15,3.61h2.36Z"/><path class="cls-1" d="M131.25,41.21l-3.6-6.6v6.6h-1.82V31.87h2.38l3.54,6.62V31.87h1.81v9.35Z"/><path class="cls-1" d="M141.29,40.06a2.91,2.91,0,0,1-2.67,1.3c-2.81,0-4-1.95-4-4.67,0-3,1.55-5,4.53-5,2,0,3.52.92,3.69,3.27l-1.86.18c-.1-1-.53-1.81-1.87-1.81-1.64,0-2.43,1.17-2.43,3.18,0,2.22.72,3.25,2.36,3.25,1.25,0,1.91-.72,1.91-1.63v-.34h-1.7V36.35H143v4.87h-1.45Z"/><path class="cls-1" d="M146.13,39.54h4.17v1.68h-6.16V31.87h5.93v1.67h-3.94v2.19h3.71v1.63h-3.71Z"/><g id="_Group_" data-name="&lt;Group&gt;"><path id="_Compound_Path_" data-name="&lt;Compound Path&gt;" class="cls-1" d="M27,20.5V39.22H6.27V18.5H25v-2H4.27V41.22H29V20.5Z"/></g><g id="_Group_2" data-name="&lt;Group&gt;"><polygon id="_Path_" data-name="&lt;Path&gt;" class="cls-1" points="42.29 3.2 42.29 14.51 40.29 14.51 40.29 5.2 28.99 5.2 28.99 16.5 38.3 16.5 38.3 18.5 26.99 18.5 26.99 3.2 42.29 3.2"/></g><g id="_Group_3" data-name="&lt;Group&gt;"><polygon id="_Path_2" data-name="&lt;Path&gt;" class="cls-1" points="50.27 16.51 50.27 26.48 44.28 26.48 44.28 24.48 48.27 24.48 48.27 18.51 42.29 18.51 42.29 22.49 40.3 22.49 40.3 16.51 50.27 16.51"/></g><g id="_Group_4" data-name="&lt;Group&gt;"><rect id="_Path_3" data-name="&lt;Path&gt;" class="cls-1" x="34.92" y="24.48" width="7.37" height="7.37"/></g></svg>