<svg id="Layer_1" data-name="Layer 1" xmlns="http://www.w3.org/2000/svg" viewBox="0 0 100.33 119.33"><defs><style>.cls-1{fill:#37266b;}.cls-2{fill:#fff;}.cls-3{fill:#036;}</style></defs><title>logo_ix_top</title><path class="cls-1" d="M90.9,92.35c-6.9,13.29-41.87,23-41.87,23s-36.23-10.11-41.87-23,0-80.09,0-80.09H90.9S97.8,79.06,90.9,92.35Z"/><path class="cls-2" d="M90.9,91.35c-6.9,13.29-41.87,23-41.87,23s-36.23-10.11-41.87-23,0-80.09,0-80.09H90.9S97.8,78.06,90.9,91.35Z"/><path id="_Compound_Path_" data-name="&lt;Compound Path&gt;" class="cls-3" d="M50.44,53V73.35H28V50.86H48.27V48.7H25.79V75.51H52.6V53Z"/><polygon id="_Path_" data-name="&lt;Path&gt;" class="cls-3" points="67.04 34.26 67.04 46.54 64.87 46.54 64.87 36.43 52.6 36.43 52.6 48.7 62.71 48.7 62.71 50.86 50.44 50.86 50.44 34.26 67.04 34.26"/><polygon id="_Path_2" data-name="&lt;Path&gt;" class="cls-3" points="75.69 48.71 75.69 59.52 69.2 59.52 69.2 57.35 73.53 57.35 73.53 50.88 67.04 50.88 67.04 55.19 64.88 55.19 64.88 48.71 75.69 48.71"/><rect id="_Path_3" data-name="&lt;Path&gt;" class="cls-3" x="59.04" y="57.36" width="8" height="8"/></svg>