<svg id="Layer_1" data-name="Layer 1" xmlns="http://www.w3.org/2000/svg" viewBox="0 0 24.33 20.96"><defs><style>.cls-1{fill:#fff;}</style></defs><title>twitter</title><path class="cls-1" d="M14.9,1.24a4.79,4.79,0,0,0-3.23,4.82l0,.82-.83-.1A13.45,13.45,0,0,1,3,2.9L1.92,1.81l-.28.8a4.84,4.84,0,0,0,1,5c.66.7.51.8-.63.38a2,2,0,0,0-.78-.18A6,6,0,0,0,1.85,10a5.34,5.34,0,0,0,2.27,2.14l.81.38-1,0c-.93,0-1,0-.86.37a5,5,0,0,0,3.1,2.75l1,.35-.89.54A9.31,9.31,0,0,1,1.9,17.8a4.92,4.92,0,0,0-1.36.13,12.59,12.59,0,0,0,3.2,1.47A14,14,0,0,0,14.6,18.17a14.56,14.56,0,0,0,5.51-6.49,17.28,17.28,0,0,0,1.13-5c0-.77,0-.87,1-1.79a11,11,0,0,0,1.16-1.29c.17-.32.15-.32-.7,0-1.41.5-1.61.44-.91-.32a4.87,4.87,0,0,0,1.13-1.79s-.25,0-.53.18a9.15,9.15,0,0,1-1.46.57L20,2.46l-.81-.55a6.73,6.73,0,0,0-1.41-.74A5.66,5.66,0,0,0,14.9,1.24Z"/></svg>