<svg id="Layer_1" data-name="Layer 1" xmlns="http://www.w3.org/2000/svg" viewBox="0 0 23.17 21.21"><defs><style>.cls-1{fill:#fff;}</style></defs><title>vimeo</title><g id="_Group_" data-name="&lt;Group&gt;"><path id="_Path_" data-name="&lt;Path&gt;" class="cls-1" d="M21.45,6.38q-.14,3-4.24,8.32Q13,20.22,10,20.22c-1.21,0-2.24-1.12-3.08-3.36-.56-2.05-1.12-4.1-1.68-6.16q-.93-3.35-2-3.36a6.34,6.34,0,0,0-1.63,1l-1-1.26c1-.9,2-1.8,3-2.71A6.86,6.86,0,0,1,6.78,2.49q2.42-.23,3,3.32.61,3.83.84,4.76c.47,2.12,1,3.18,1.54,3.18s1.09-.69,2-2.06a8.12,8.12,0,0,0,1.4-3.14c.13-1.18-.34-1.78-1.4-1.78a3.83,3.83,0,0,0-1.54.34q1.54-5,5.86-4.88C20.56,2.28,21.57,3.66,21.45,6.38Z"/></g></svg>